# xmcd
#
# Track frame offsets:
#       150
#       17482
#       29605
#       55026
#       67403
#       92464
#       116305
#       130493
#       147428
#       168014
#       191553
#       202156
#       212689
#       221903
#       234665
#       245224
#
# Disc length: 3463 seconds
#
# Revision: 3
# Processed by: cddbd v1.4PL0 Copyright (c) Steve Scherf et al.
# Submitted via: WhereIsIt 3.26
#
DISCID=f60d8510
DTITLE=Eric Clapton - Best Of The Yardbird Years
DYEAR=1900
DGENRE=
TTITLE0=Too much Monkey business
TTITLE1=Got love if you want it
TTITLE2=Smokestack lightnin'
TTITLE3=Good morning little school girl (live)
TTITLE4=Respectable
TTITLE5=Five long years
TTITLE6=Pretty girl
TTITLE7=Louise
TTITLE8=I'm a Man (live)
TTITLE9=Here 'Tis
TTITLE10=I wish you would
TTITLE11=A certain girl
TTITLE12=I ain't got you
TTITLE13=Got to hurry
TTITLE14=Let it rock
TTITLE15=Out on the water coast (w Sonny boy Williamson)
EXTD=
EXTT0=
EXTT1=
EXTT2=
EXTT3=
EXTT4=
EXTT5=
EXTT6=
EXTT7=
EXTT8=
EXTT9=
EXTT10=
EXTT11=
EXTT12=
EXTT13=
EXTT14=
EXTT15=
PLAYORDER=
